<?xml version="1.0" encoding="UTF-8" standalone="no"?>
<svg width="1199px" height="304px" viewBox="0 0 1199 304" version="1.1" xmlns="http://www.w3.org/2000/svg" xmlns:xlink="http://www.w3.org/1999/xlink" xmlns:sketch="http://www.bohemiancoding.com/sketch/ns">
    <!-- Generator: Sketch 3.3.3 (12081) - http://www.bohemiancoding.com/sketch -->
    <title>Whoa</title>
    <desc>Created with Sketch.</desc>
    <defs></defs>
    <g id="Page-1" stroke="none" stroke-width="1" fill="none" fill-rule="evenodd" sketch:type="MSPage">
        <g id="Whoa" sketch:type="MSLayerGroup" fill="#FFFFFF">
            <path d="M156.367018,170 L115.582585,290.864 L0,290.864 L0,2 L91.4397598,2 L91.4397598,167.24 L149.167018,2 L237.330817,2 L237.330817,167.24 L296.110573,2 L384.652081,2 L280.530817,290.864 L156.367018,290.864 L156.367018,170 Z" id="Path-2" sketch:type="MSShapeGroup"></path>
            <path d="M414.326976,2 L508.09854,2 L472.40005,101.144 L548.032416,101.144 L583.54661,2 L678.112709,2 L575.150793,290.864 L480.367911,290.864 L520.229405,179.888 L444.450665,179.888 L404.382881,290.864 L309.6,290.864 L414.326976,2 Z" id="Path-3" sketch:type="MSShapeGroup"></path>
            <path d="M639.148967,225.216 C635.422991,209.16792 635.004191,191.488097 637.889158,172.176 C641.464892,148.23988 648.933415,125.800105 660.288975,104.856 C671.636569,83.9118953 685.886514,65.6880775 703.037224,50.184 C720.177281,34.6799225 739.937609,22.4400449 762.320224,13.464 C784.694084,4.48795512 808.720237,1.70530257e-13 834.405971,1.70530257e-13 C857.17889,1.70530257e-13 876.775678,3.19596804 893.200774,9.588 C909.631007,15.980032 922.904299,25.0239415 933.021986,36.72 C943.146058,48.4160585 950.115658,62.2879198 953.929601,78.336 C957.748072,94.3840802 958.286002,112.063903 955.540009,131.376 C952.136525,155.31212 944.891016,177.751895 933.797387,198.696 C922.69592,219.640105 908.51398,237.863922 891.248959,253.368 C873.97319,268.872078 854.091826,281.111955 831.605764,290.088 C809.110947,299.064045 784.794101,303.552 758.661064,303.552 C735.994653,303.552 716.398768,300.356032 699.876673,293.964 C683.359715,287.571968 670.039864,278.528058 659.917656,266.832 C649.801834,255.135942 642.879471,241.26408 639.148967,225.216 Z M833.480169,87.36 C827.37411,84.6399864 820.208925,83.28 811.983787,83.28 C801.636033,83.28 791.955641,85.5239776 782.941019,90.012 C773.924662,94.5000224 765.95809,100.415963 759.040879,107.76 C752.121685,115.104037 746.368512,123.535952 741.781621,133.056 C737.193329,142.576048 734.178161,152.231951 732.737077,162.024 C731.656265,169.368037 731.775566,176.235968 733.095486,182.628 C734.416072,189.020032 736.921268,194.595976 740.611373,199.356 C744.302441,204.116024 749.208357,207.855986 755.329157,210.576 C761.450775,213.296014 768.769909,214.656 777.286165,214.656 C787.665352,214.656 797.296492,212.480022 806.178633,208.128 C815.059119,203.775978 822.957524,197.928037 829.873839,190.584 C836.788172,183.239963 842.528277,174.808048 847.094763,165.288 C851.659847,155.767952 854.668483,145.97605 856.121813,135.912 C857.182351,128.567963 857.045511,121.700032 855.711789,115.308 C854.378733,108.915968 851.866595,103.340024 848.175522,98.58 C844.485412,93.8199762 839.587047,90.0800136 833.480169,87.36 Z" id="Path-5" sketch:type="MSShapeGroup"></path>
            <path d="M1113.576,290.864 L1113.576,246.8 L1026.936,246.8 L1002.864,290.864 L897.6,290.864 L1075.08,2 L1198.632,2 L1198.632,290.864 L1113.576,290.864 Z M1115.66842,78.3022996 L1063.248,174.584 L1115.66842,174.584 L1115.66842,78.3022996 Z" id="A" sketch:type="MSShapeGroup"></path>
        </g>
    </g>
</svg>