<?xml version="1.0" encoding="UTF-8" standalone="no"?>
<svg width="500px" height="127px" viewBox="0 0 500 127" version="1.1" xmlns="http://www.w3.org/2000/svg" xmlns:xlink="http://www.w3.org/1999/xlink" xmlns:sketch="http://www.bohemiancoding.com/sketch/ns">
    <!-- Generator: Sketch 3.2.2 (9983) - http://www.bohemiancoding.com/sketch -->
    <title>whoa</title>
    <desc>Created with Sketch.</desc>
    <defs></defs>
    <g id="Page-1" stroke="none" stroke-width="1" fill="none" fill-rule="evenodd" sketch:type="MSPage">
        <g id="Whoa" sketch:type="MSLayerGroup" fill="#FFFFFF">
            <path d="M65.1529243,70 L48.1594103,120.36 L0,120.36 L0,1.13686838e-13 L38.0998999,1.13686838e-13 L38.0998999,68.85 L62.1529244,1.13686838e-13 L98.8878403,1.13686838e-13 L98.8878403,68.85 L123.379405,1.13686838e-13 L160.271701,1.13686838e-13 L116.88784,120.36 L65.1529243,120.36 L65.1529243,70 Z" id="Path-2" sketch:type="MSShapeGroup"></path>
            <path d="M172.63624,-2.84217094e-14 L211.707725,-2.84217094e-14 L196.833354,41.31 L228.34684,41.31 L243.144421,-2.84217094e-14 L282.546962,-2.84217094e-14 L239.646164,120.36 L200.153296,120.36 L216.762252,74.12 L185.187777,74.12 L168.492867,120.36 L129,120.36 L172.63624,-2.84217094e-14 Z" id="Path-3" sketch:type="MSShapeGroup"></path>
            <path d="M266.31207,93.84 C264.75958,87.1532999 264.58508,79.7867069 265.787149,71.74 C267.277038,61.7666168 270.388923,52.4167103 275.120406,43.69 C279.84857,34.9632897 285.786048,27.3700323 292.932177,20.91 C300.073867,14.4499677 308.307337,9.3500187 317.633427,5.61 C326.955868,1.8699813 336.966766,2.84217094e-14 347.669155,2.84217094e-14 C357.157871,2.84217094e-14 365.323199,1.33165335 372.166989,3.995 C379.01292,6.65834665 384.543458,10.4266423 388.759161,15.3 C392.977524,20.1733577 395.881524,25.9532999 397.470667,32.64 C399.061697,39.3267001 399.285834,46.6932931 398.14167,54.74 C396.723552,64.7133832 393.70459,74.0632897 389.082244,82.79 C384.456633,91.5167103 378.547491,99.1099677 371.353733,105.57 C364.155496,112.030032 355.871594,117.129981 346.502402,120.87 C337.129561,124.610019 326.997542,126.48 316.108776,126.48 C306.664439,126.48 298.499487,125.148347 291.61528,122.485 C284.733215,119.821653 279.183277,116.053358 274.96569,111.18 C270.750764,106.306642 267.866446,100.5267 266.31207,93.84 Z M347.283404,36.4 C344.739212,35.266661 341.753719,34.7 338.326578,34.7 C334.015014,34.7 329.981517,35.6349906 326.225425,37.505 C322.468609,39.3750093 319.149204,41.8399847 316.267033,44.9 C313.384036,47.9600153 310.98688,51.4733135 309.075676,55.44 C307.163887,59.4066865 305.907567,63.4299796 305.307116,67.51 C304.856777,70.5700153 304.906486,73.4316533 305.456452,76.095 C306.006697,78.7583466 307.050529,81.0816567 308.588072,83.065 C310.126017,85.0483432 312.170149,86.606661 314.720482,87.74 C317.271156,88.873339 320.320795,89.44 323.869235,89.44 C328.193897,89.44 332.206872,88.5333424 335.907764,86.72 C339.607966,84.9066576 342.898968,82.4700153 345.780766,79.41 C348.661738,76.3499847 351.053449,72.8366865 352.956151,68.87 C354.858269,64.9033135 356.111868,60.8233543 356.717422,56.63 C357.159313,53.5699847 357.102296,50.7083466 356.546579,48.045 C355.991139,45.3816533 354.944415,43.0583432 353.406467,41.075 C351.868922,39.0916567 349.827936,37.533339 347.283404,36.4 Z" id="Path-5" sketch:type="MSShapeGroup"></path>
            <path d="M463.990002,120.36 L463.990002,102 L427.89,102 L417.86,120.36 L374,120.36 L447.95,2.84217094e-14 L499.430001,2.84217094e-14 L499.430001,120.36 L463.990002,120.36 Z M464.861841,31.7926249 L443.02,71.91 L464.861841,71.91 L464.861841,31.7926249 Z" id="A" sketch:type="MSShapeGroup"></path>
        </g>
    </g>
</svg>