<svg id="logo" fill="white" xmlns="http://www.w3.org/2000/svg" viewBox="0 0 476.021 113.088">
<link href="/assets/application.css" type="text/css" rel="stylesheet" xmlns="http://www.w3.org/1999/xhtml"/>
<path d="M104.178 110.352H68.002l1.569-62.016h-0.608l-32.881 62.016H0.363L0 2.736h33.24l-0.575 61.56h0.608L63.08 2.736h36.176 l-3.358 61.56h0.608l29.807-61.56h36.632L104.178 110.352z"/>
<path d="M208.752 110.352l10.369-41.344h-30.704l-10.369 41.344h-35.111L169.934 2.736h34.96l-9.281 36.936h30.704l9.281-36.936 h35.264l-26.998 107.616H208.752z"/>
<path d="M313.428 113.088c-8.615 0-16.152-1.192-22.611-3.572c-6.461-2.38-11.785-5.75-15.969-10.108 c-4.186-4.356-7.222-9.524-9.107-15.504c-1.888-5.978-2.562-12.563-2.028-19.76c0.663-8.916 2.854-17.276 6.576-25.08 c3.72-7.802 8.632-14.592 14.738-20.368c6.103-5.776 13.308-10.336 21.613-13.68C314.943 1.7 324 0 333.8 0 c8.713 0 16.3 1.2 22.8 3.572c6.46 2.4 11.8 5.8 16 10.108c4.184 4.4 7.2 9.5 9.1 15.5 c1.886 6 2.6 12.6 2 19.76c-0.662 8.918-2.83 17.278-6.5 25.08c-3.672 7.804-8.584 14.592-14.737 20.4 c-6.155 5.776-13.385 10.336-21.688 13.68C332.476 111.4 323.4 113.1 313.4 113.088z M346.882 51.5 c0.203-2.736-0.039-5.293-0.721-7.676c-0.686-2.38-1.798-4.458-3.338-6.232c-1.54-1.772-3.515-3.166-5.921-4.18 c-2.409-1.012-5.183-1.52-8.323-1.52c-3.951 0-7.586 0.836-10.902 2.508c-3.316 1.672-6.191 3.876-8.624 6.6 c-2.433 2.736-4.389 5.878-5.868 9.424c-1.479 3.548-2.354 7.144-2.625 10.792c-0.204 2.7 0 5.3 0.7 7.7 c0.683 2.4 1.8 4.5 3.3 6.232c1.54 1.8 3.5 3.2 5.9 4.18c2.407 1 5.2 1.5 8.5 1.5 c3.952 0 7.559-0.81 10.821-2.432c3.26-1.62 6.107-3.8 8.541-6.536c2.432-2.736 4.39-5.875 5.869-9.424 C345.724 58.9 346.6 55.3 346.9 51.528z"/>
<path d="M445.541 110.352V93.936h-34.172l-10.188 16.416h-39.216L436.084 2.736h39.938v107.616H445.541z M445.541 39.4 l-18.643 27.664h18.643V39.368z"/>
</svg>
